<svg xmlns="http://www.w3.org/2000/svg" width="64" height="64" viewBox="0 0 64 64">
  <defs>
    <linearGradient id="cup" x1="0" y1="0" x2="0" y2="1">
      <stop offset="0" stop-color="#d6262f"/>
      <stop offset="1" stop-color="#991519"/>
    </linearGradient>
    <linearGradient id="drop" x1="0" y1="0" x2="0" y2="1">
      <stop offset="0" stop-color="#ffe28c"/>
      <stop offset="0.55" stop-color="#f4ad3e"/>
      <stop offset="1" stop-color="#e67a1e"/>
    </linearGradient>
    <clipPath id="awn">
      <path d="M8 16 Q32 8 56 16 L56 20 q-4 5 -8 0 q-4 5 -8 0 q-4 5 -8 0 q-4 5 -8 0 q-4 5 -8 0 q-4 5 -8 0 L8 16 Z"/>
    </clipPath>
  </defs>
  <rect width="64" height="64" rx="14" fill="#1c1c1f"/>
  <g clip-path="url(#awn)">
    <rect x="6" y="7" width="52" height="22" fill="#c01f29"/>
    <rect x="18.25" y="7" width="5.5" height="22" fill="#f2c14e"/>
    <rect x="29.25" y="7" width="5.5" height="22" fill="#f2c14e"/>
    <rect x="40.25" y="7" width="5.5" height="22" fill="#f2c14e"/>
    <rect x="6" y="7" width="52" height="5.5" fill="#c01f29"/>
  </g>
  <path d="M43 33 C51 33 51 45.5 43 45.5" fill="none" stroke="#b81d24" stroke-width="3.8" stroke-linecap="round"/>
  <path d="M22 29 L42 29 Q43.4 29 43.1 30.8 L41.2 48 Q40.6 52 36.3 52 L27.7 52 Q23.4 52 22.8 48 L20.9 30.8 Q20.6 29 22 29 Z" fill="url(#cup)"/>
  <ellipse cx="32" cy="29.4" rx="10.7" ry="2.5" fill="#8f151b"/>
  <path d="M32 27 C37 33.5 38.7 38 35.2 41.8 C33.4 43.8 30.6 43.8 28.8 41.8 C25.3 38 27 33.5 32 27 Z" fill="url(#drop)"/>
  <ellipse cx="29.9" cy="36" rx="1.4" ry="2.4" fill="#ffffff" fill-opacity="0.45"/>
</svg>
